<svg width="112" height="56" viewBox="0 0 112 56" fill="none" xmlns="http://www.w3.org/2000/svg">
<rect width="112" height="56" fill="white"/>
<path d="M48.2678 19.5845L56.3485 28.0052L48.3279 36.5035C48.1967 36.3219 48.0948 36.1184 48.0265 35.9013C47.9912 35.6554 47.9912 35.4053 48.0265 35.1595V20.6976C48.0025 20.3095 48.0866 19.9214 48.2669 19.5845M59.8294 24.3327L57.1917 27.1092L49.2072 18.7651C49.466 18.6698 49.7434 18.6433 50.0143 18.6884C50.4396 18.8122 50.8455 19.0028 51.2181 19.2514L58.4444 23.5006C58.9141 23.7688 59.3718 24.0508 59.8294 24.3327ZM57.1926 28.914L59.8174 31.6531L57.9147 32.779L52.1094 36.2078C51.6286 36.4898 51.146 36.759 50.6763 37.0665C50.4753 37.1994 50.25 37.2853 50.0153 37.3183C49.7806 37.3514 49.542 37.3308 49.3153 37.2581L57.1926 28.914ZM63.9973 28.0052C64.0041 28.3487 63.9224 28.6877 63.7611 28.9855C63.5998 29.2833 63.365 29.5287 63.082 29.695L60.913 30.9742L58.0589 28.0052L60.925 24.9851C61.66 25.4203 62.383 25.8555 63.1051 26.2652C63.3931 26.4363 63.6296 26.6904 63.7874 26.9984C63.9451 27.3063 64.0185 27.6553 63.9973 28.0052Z" fill="#FF5520"/>
</svg>
