<svg width="112" height="56" viewBox="0 0 112 56" fill="none" xmlns="http://www.w3.org/2000/svg">
<rect width="112" height="56" fill="white"/>
<path d="M61.9974 37.6575C60.8344 38.7656 59.5645 38.5907 58.3422 38.0657C57.0486 37.5291 55.8618 37.5058 54.497 38.0657C52.788 38.789 51.8861 38.579 50.8654 37.6575C45.0739 31.7899 45.9284 22.8543 52.5032 22.5277C54.1054 22.6094 55.2209 23.3909 56.1585 23.4609C57.5589 23.1809 58.8999 22.3761 60.3953 22.481C62.1873 22.621 63.5403 23.3209 64.4303 24.5808C60.7276 26.7622 61.6058 31.5566 65 32.8981C64.3235 34.6478 63.4453 36.386 61.9856 37.6691L61.9974 37.6575ZM56.0398 22.4577C55.8618 19.8564 58.0099 17.71 60.4784 17.5C60.8225 20.5096 57.7013 22.7493 56.0398 22.4577Z" fill="#FF5520"/>
</svg>
