<svg width="24" height="24" viewBox="0 0 24 24" fill="none" xmlns="http://www.w3.org/2000/svg">
<path d="M18.758 8.21027L12.5117 14.3579C12.3754 14.4927 12.1915 14.5684 11.9998 14.5684C11.808 14.5684 11.6241 14.4927 11.4878 14.3579L5.24149 8.2116C5.10436 8.07684 4.91979 8.00133 4.72752 8.00133C4.53526 8.00133 4.35069 8.07684 4.21355 8.2116C4.14603 8.27743 4.09236 8.35612 4.05572 8.44302C4.01908 8.52991 4.0002 8.62327 4.0002 8.71757C4.0002 8.81188 4.01908 8.90523 4.05572 8.99213C4.09236 9.07903 4.14603 9.15771 4.21355 9.22354L10.4585 15.3698C10.8699 15.7737 11.4233 16 11.9998 16C12.5762 16 13.1297 15.7737 13.541 15.3698L19.786 9.22354C19.8537 9.15769 19.9075 9.07893 19.9443 8.9919C19.9811 8.90488 20 8.81137 20 8.71691C20 8.62244 19.9811 8.52893 19.9443 8.44191C19.9075 8.35489 19.8537 8.27612 19.786 8.21027C19.6488 8.07551 19.4643 8 19.272 8C19.0797 8 18.8952 8.07551 18.758 8.21027Z" fill="#888E95"/>
</svg>
