<svg width="224" height="56" viewBox="0 0 224 56" fill="none" xmlns="http://www.w3.org/2000/svg">
<rect width="112" height="56" fill="white"/>
<path d="M61.9974 37.6575C60.8344 38.7656 59.5645 38.5907 58.3422 38.0657C57.0486 37.5291 55.8618 37.5058 54.497 38.0657C52.788 38.789 51.8861 38.579 50.8654 37.6575C45.0739 31.7899 45.9284 22.8543 52.5032 22.5277C54.1054 22.6094 55.2209 23.3909 56.1585 23.4609C57.5589 23.1809 58.8999 22.3761 60.3953 22.481C62.1873 22.621 63.5403 23.3209 64.4303 24.5808C60.7276 26.7622 61.6058 31.5566 65 32.8981C64.3235 34.6478 63.4453 36.386 61.9856 37.6691L61.9974 37.6575ZM56.0398 22.4577C55.8618 19.8564 58.0099 17.71 60.4784 17.5C60.8225 20.5096 57.7013 22.7493 56.0398 22.4577Z" fill="#FF5520"/>
<rect width="112" height="56" transform="translate(112)" fill="white"/>
<path d="M160.268 19.5845L168.348 28.0052L160.328 36.5035C160.197 36.3219 160.095 36.1184 160.027 35.9013C159.991 35.6554 159.991 35.4053 160.027 35.1595V20.6976C160.002 20.3095 160.087 19.9214 160.267 19.5845M171.829 24.3327L169.192 27.1092L161.207 18.7651C161.466 18.6698 161.743 18.6433 162.014 18.6884C162.44 18.8122 162.845 19.0028 163.218 19.2514L170.444 23.5006C170.914 23.7688 171.372 24.0508 171.829 24.3327ZM169.193 28.914L171.817 31.6531L169.915 32.779L164.109 36.2078C163.629 36.4898 163.146 36.759 162.676 37.0665C162.475 37.1994 162.25 37.2853 162.015 37.3183C161.781 37.3514 161.542 37.3308 161.315 37.2581L169.193 28.914ZM175.997 28.0052C176.004 28.3487 175.922 28.6877 175.761 28.9855C175.6 29.2833 175.365 29.5287 175.082 29.695L172.913 30.9742L170.059 28.0052L172.925 24.9851C173.66 25.4203 174.383 25.8555 175.105 26.2652C175.393 26.4363 175.63 26.6904 175.787 26.9984C175.945 27.3063 176.018 27.6553 175.997 28.0052Z" fill="#FF5520"/>
</svg>
