<svg width="28" height="28" viewBox="0 0 28 28" fill="none" xmlns="http://www.w3.org/2000/svg">
<g clip-path="url(#clip0_524_6854)">
<path d="M8.78431 23.0589C3.93274 23.0589 0 19.1261 0 14.2745C0 9.42297 3.93274 5.49023 8.78431 5.49023C13.6359 5.49023 17.5686 9.42297 17.5686 14.2745C17.5686 19.1261 13.6359 23.0589 8.78431 23.0589ZM6.77271 21.0095C5.90606 19.1712 5.404 17.1823 5.29431 15.153H1.81133C1.98247 16.5047 2.5424 17.7777 3.42313 18.8173C4.30385 19.8569 5.46748 20.6185 6.77271 21.0095ZM7.0538 15.153C7.18645 17.2955 7.79871 19.308 8.78431 21.0842C9.79669 19.2611 10.388 17.2344 10.5148 15.153H7.0538ZM15.7573 15.153H12.2743C12.1646 17.1823 11.6626 19.1712 10.7959 21.0095C12.1011 20.6185 13.2648 19.8569 14.1455 18.8173C15.0262 17.7777 15.5862 16.5047 15.7573 15.153ZM1.81133 13.3961H5.29431C5.404 11.3668 5.90606 9.3779 6.77271 7.53962C5.46748 7.93061 4.30385 8.69216 3.42313 9.73178C2.5424 10.7714 1.98247 12.0444 1.81133 13.3961ZM7.05468 13.3961H10.5139C10.3874 11.3147 9.79638 9.2881 8.78431 7.46495C7.77194 9.28803 7.18064 11.3147 7.0538 13.3961M10.795 7.53962C11.662 9.37783 12.1644 11.3667 12.2743 13.3961H15.7573C15.5862 12.0444 15.0262 10.7714 14.1455 9.73178C13.2648 8.69216 12.1011 7.93061 10.7959 7.53962" fill="white"/>
</g>
<defs>
<clipPath id="clip0_524_6854">
<rect width="28" height="28" fill="white"/>
</clipPath>
</defs>
</svg>
